<svg xmlns="http://www.w3.org/2000/svg" width="247.694" height="74.493"><path d="M222.048 69.435a5.379 5.379 0 01-5.392-5.41 5.384 5.384 0 015.423-5.408c2.945 0 5.394 2.401 5.394 5.305 0 3.142-2.324 5.513-5.425 5.513zm.017-10.117c-2.588 0-4.664 2.104-4.664 4.723 0 2.617 2.062 4.693 4.664 4.693 2.545 0 4.679-2.105 4.679-4.605 0-2.735-2.017-4.811-4.679-4.811zm1.153 7.998l-1.389-2.762h-.788v2.762h-1.01v-6.58h1.901c1.606 0 2.323.571 2.323 1.887 0 1.01-.438 1.578-1.403 1.842l1.491 2.852h-1.125zm-1.431-5.688h-.732v2.033h.835c.938 0 1.346-.309 1.346-1.024 0-.715-.425-1.009-1.449-1.009z" fill="#585858"/><g fill="#585858"><path d="M114.464 69.435V5h20.154v47.485h36.369v16.949h-56.523zM164.673 5h73.021v16.947h-26.289v47.488h-20.15V21.947h-26.582z"/></g><g fill="#e60000"><path d="M10 5l30.155 30.156 14.058-14.059L38.116 5zM102.688 5H86.595c-7.977 0-15.598 3.574-22.014 9.99L10.073 69.493H38.19l18.152-18.15 18.149 18.15h28.115L70.399 37.285z"/></g></svg>